<?xml version="1.0" encoding="utf-8"?>
<!-- Svg Vector Icons : http://www.onlinewebfonts.com/icon -->
<!DOCTYPE svg PUBLIC "-//W3C//DTD SVG 1.1//EN" "http://www.w3.org/Graphics/SVG/1.1/DTD/svg11.dtd">
<svg version="1.1" xmlns="http://www.w3.org/2000/svg" xmlns:xlink="http://www.w3.org/1999/xlink" x="0px" y="0px" viewBox="0 0 256 256" enable-background="new 0 0 256 256" xml:space="preserve">
<metadata> Svg Vector Icons : http://www.onlinewebfonts.com/icon </metadata>
<g><g><g><path fill="#000000" d="M80,10.5c-46,6.5-77.3,49.8-68.6,95c2.9,15.3,10,29,20.9,40.2c14.4,14.9,30.6,22.7,51.3,24.7c15.5,1.5,33.5-2.4,46.9-10.4l4-2.3l42.7,42.6c45.3,45.1,44.7,44.7,51.3,45.5c4.3,0.6,7.5-0.9,12.2-5.8c4.5-4.7,5.8-7.4,5.2-11.6c-0.9-6.5-0.5-6.1-45.5-51.2l-42.6-42.7l2.3-4c8-13.3,11.9-31.4,10.4-46.9c-2-20.3-9.2-35.6-23.6-50c-11.7-11.7-25-18.9-41-22.1C100.2,10.2,85.4,9.7,80,10.5z M100.1,20.4c10.1,1.4,21.2,5.6,29.9,11.4c6.2,4.1,14.9,13,19.3,19.4c13.3,20.2,15.4,45,5.8,67.6c-6.2,14.4-21.8,30-36.2,36.2c-27.5,11.7-57.8,5.9-78.5-15.1c-6.2-6.3-10.3-12.1-13.8-19.6c-9.4-20.1-9-42.7,1.3-62.5C39.7,34.7,63.6,20,89.4,19.7C92.6,19.7,97.4,20,100.1,20.4z M235.4,227.1c1.4,2.6,1,3.6-1.7,6.5c-2.7,2.7-3.9,3.1-6.2,2c-0.7-0.4-20.1-19.4-43-42.3l-41.7-41.6l4.4-4.4l4.5-4.5l41.4,41.3C215.8,206.8,234.9,226.1,235.4,227.1z"/></g></g></g>
</svg>